<mxfile host="app.diagrams.net" agent="Mozilla/5.0 (Macintosh; Intel Mac OS X 10_15_7) AppleWebKit/605.1.15 (KHTML, like Gecko) Version/16.3 Safari/605.1.15" version="26.1.1">
  <diagram id="C5RBs43oDa-KdzZeNtuy" name="Page-1">
    <mxGraphModel dx="2582" dy="1410" grid="1" gridSize="10" guides="1" tooltips="1" connect="1" arrows="1" fold="1" page="1" pageScale="1" pageWidth="827" pageHeight="1169" math="0" shadow="0">
      <root>
        <mxCell id="WIyWlLk6GJQsqaUBKTNV-0" />
        <mxCell id="WIyWlLk6GJQsqaUBKTNV-1" parent="WIyWlLk6GJQsqaUBKTNV-0" />
        <mxCell id="4y6V4wLV0EvAnL0dNy4f-1" style="edgeStyle=orthogonalEdgeStyle;rounded=0;orthogonalLoop=1;jettySize=auto;html=1;exitX=0.5;exitY=1;exitDx=0;exitDy=0;" edge="1" parent="WIyWlLk6GJQsqaUBKTNV-1" source="4y6V4wLV0EvAnL0dNy4f-0">
          <mxGeometry relative="1" as="geometry">
            <mxPoint x="270" y="160" as="targetPoint" />
          </mxGeometry>
        </mxCell>
        <mxCell id="4y6V4wLV0EvAnL0dNy4f-0" value="Start" style="ellipse;whiteSpace=wrap;html=1;" vertex="1" parent="WIyWlLk6GJQsqaUBKTNV-1">
          <mxGeometry x="205" y="40" width="130" height="60" as="geometry" />
        </mxCell>
        <mxCell id="4y6V4wLV0EvAnL0dNy4f-8" value="" style="edgeStyle=orthogonalEdgeStyle;rounded=0;orthogonalLoop=1;jettySize=auto;html=1;" edge="1" parent="WIyWlLk6GJQsqaUBKTNV-1" source="4y6V4wLV0EvAnL0dNy4f-6" target="4y6V4wLV0EvAnL0dNy4f-7">
          <mxGeometry relative="1" as="geometry" />
        </mxCell>
        <mxCell id="4y6V4wLV0EvAnL0dNy4f-11" value="" style="edgeStyle=orthogonalEdgeStyle;rounded=0;orthogonalLoop=1;jettySize=auto;html=1;" edge="1" parent="WIyWlLk6GJQsqaUBKTNV-1" source="4y6V4wLV0EvAnL0dNy4f-6" target="4y6V4wLV0EvAnL0dNy4f-10">
          <mxGeometry relative="1" as="geometry" />
        </mxCell>
        <mxCell id="4y6V4wLV0EvAnL0dNy4f-6" value="Is the unit metric?" style="rhombus;whiteSpace=wrap;html=1;" vertex="1" parent="WIyWlLk6GJQsqaUBKTNV-1">
          <mxGeometry x="230" y="160" width="80" height="80" as="geometry" />
        </mxCell>
        <mxCell id="4y6V4wLV0EvAnL0dNy4f-14" value="" style="edgeStyle=orthogonalEdgeStyle;rounded=0;orthogonalLoop=1;jettySize=auto;html=1;" edge="1" parent="WIyWlLk6GJQsqaUBKTNV-1" source="4y6V4wLV0EvAnL0dNy4f-7" target="4y6V4wLV0EvAnL0dNy4f-13">
          <mxGeometry relative="1" as="geometry" />
        </mxCell>
        <mxCell id="4y6V4wLV0EvAnL0dNy4f-7" value="Input weight and height in Metric" style="whiteSpace=wrap;html=1;" vertex="1" parent="WIyWlLk6GJQsqaUBKTNV-1">
          <mxGeometry x="50" y="170" width="120" height="60" as="geometry" />
        </mxCell>
        <mxCell id="4y6V4wLV0EvAnL0dNy4f-9" value="Yes" style="text;html=1;align=center;verticalAlign=middle;resizable=0;points=[];autosize=1;strokeColor=none;fillColor=none;" vertex="1" parent="WIyWlLk6GJQsqaUBKTNV-1">
          <mxGeometry x="180" y="168" width="40" height="30" as="geometry" />
        </mxCell>
        <mxCell id="4y6V4wLV0EvAnL0dNy4f-16" value="" style="edgeStyle=orthogonalEdgeStyle;rounded=0;orthogonalLoop=1;jettySize=auto;html=1;" edge="1" parent="WIyWlLk6GJQsqaUBKTNV-1" source="4y6V4wLV0EvAnL0dNy4f-10" target="4y6V4wLV0EvAnL0dNy4f-15">
          <mxGeometry relative="1" as="geometry" />
        </mxCell>
        <mxCell id="4y6V4wLV0EvAnL0dNy4f-10" value="Input weight and hight in&amp;nbsp;&lt;span style=&quot;text-align: start;&quot;&gt;Imperial&lt;/span&gt;&amp;nbsp;" style="rounded=1;whiteSpace=wrap;html=1;" vertex="1" parent="WIyWlLk6GJQsqaUBKTNV-1">
          <mxGeometry x="370" y="170" width="120" height="60" as="geometry" />
        </mxCell>
        <mxCell id="4y6V4wLV0EvAnL0dNy4f-12" value="No" style="text;html=1;align=center;verticalAlign=middle;resizable=0;points=[];autosize=1;strokeColor=none;fillColor=none;" vertex="1" parent="WIyWlLk6GJQsqaUBKTNV-1">
          <mxGeometry x="320" y="168" width="40" height="30" as="geometry" />
        </mxCell>
        <mxCell id="4y6V4wLV0EvAnL0dNy4f-18" value="" style="edgeStyle=orthogonalEdgeStyle;rounded=0;orthogonalLoop=1;jettySize=auto;html=1;" edge="1" parent="WIyWlLk6GJQsqaUBKTNV-1" source="4y6V4wLV0EvAnL0dNy4f-13">
          <mxGeometry relative="1" as="geometry">
            <mxPoint x="230" y="340" as="targetPoint" />
          </mxGeometry>
        </mxCell>
        <mxCell id="4y6V4wLV0EvAnL0dNy4f-13" value="&lt;div style=&quot;text-align: start;&quot;&gt;Calculate BMI = Weight / (Height * Height)&lt;/div&gt;" style="rounded=1;whiteSpace=wrap;html=1;" vertex="1" parent="WIyWlLk6GJQsqaUBKTNV-1">
          <mxGeometry x="50" y="310" width="120" height="60" as="geometry" />
        </mxCell>
        <mxCell id="4y6V4wLV0EvAnL0dNy4f-20" style="edgeStyle=orthogonalEdgeStyle;rounded=0;orthogonalLoop=1;jettySize=auto;html=1;entryX=1;entryY=0.5;entryDx=0;entryDy=0;" edge="1" parent="WIyWlLk6GJQsqaUBKTNV-1" source="4y6V4wLV0EvAnL0dNy4f-15">
          <mxGeometry relative="1" as="geometry">
            <mxPoint x="310" y="340" as="targetPoint" />
          </mxGeometry>
        </mxCell>
        <mxCell id="4y6V4wLV0EvAnL0dNy4f-15" value="&lt;div style=&quot;text-align: start;&quot;&gt;Calculate BMI = (Weight * 703) / (Height * Height)&lt;/div&gt;" style="rounded=1;whiteSpace=wrap;html=1;" vertex="1" parent="WIyWlLk6GJQsqaUBKTNV-1">
          <mxGeometry x="370" y="310" width="120" height="60" as="geometry" />
        </mxCell>
        <mxCell id="4y6V4wLV0EvAnL0dNy4f-23" value="" style="edgeStyle=orthogonalEdgeStyle;rounded=0;orthogonalLoop=1;jettySize=auto;html=1;" edge="1" parent="WIyWlLk6GJQsqaUBKTNV-1" source="4y6V4wLV0EvAnL0dNy4f-21" target="4y6V4wLV0EvAnL0dNy4f-22">
          <mxGeometry relative="1" as="geometry" />
        </mxCell>
        <mxCell id="4y6V4wLV0EvAnL0dNy4f-21" value="Choose&lt;div&gt;&amp;nbsp;Race&lt;/div&gt;" style="shape=parallelogram;perimeter=parallelogramPerimeter;whiteSpace=wrap;html=1;fixedSize=1;" vertex="1" parent="WIyWlLk6GJQsqaUBKTNV-1">
          <mxGeometry x="220" y="320" width="100" height="50" as="geometry" />
        </mxCell>
        <mxCell id="4y6V4wLV0EvAnL0dNy4f-25" value="" style="edgeStyle=orthogonalEdgeStyle;rounded=0;orthogonalLoop=1;jettySize=auto;html=1;" edge="1" parent="WIyWlLk6GJQsqaUBKTNV-1" source="4y6V4wLV0EvAnL0dNy4f-22" target="4y6V4wLV0EvAnL0dNy4f-24">
          <mxGeometry relative="1" as="geometry" />
        </mxCell>
        <mxCell id="4y6V4wLV0EvAnL0dNy4f-68" value="" style="edgeStyle=orthogonalEdgeStyle;rounded=0;orthogonalLoop=1;jettySize=auto;html=1;" edge="1" parent="WIyWlLk6GJQsqaUBKTNV-1" source="4y6V4wLV0EvAnL0dNy4f-22" target="4y6V4wLV0EvAnL0dNy4f-67">
          <mxGeometry relative="1" as="geometry" />
        </mxCell>
        <mxCell id="4y6V4wLV0EvAnL0dNy4f-22" value="Is the race Asian?" style="rhombus;whiteSpace=wrap;html=1;" vertex="1" parent="WIyWlLk6GJQsqaUBKTNV-1">
          <mxGeometry x="230" y="435" width="80" height="80" as="geometry" />
        </mxCell>
        <mxCell id="4y6V4wLV0EvAnL0dNy4f-28" value="" style="edgeStyle=orthogonalEdgeStyle;rounded=0;orthogonalLoop=1;jettySize=auto;html=1;" edge="1" parent="WIyWlLk6GJQsqaUBKTNV-1" source="4y6V4wLV0EvAnL0dNy4f-24" target="4y6V4wLV0EvAnL0dNy4f-27">
          <mxGeometry relative="1" as="geometry" />
        </mxCell>
        <mxCell id="4y6V4wLV0EvAnL0dNy4f-33" value="" style="edgeStyle=orthogonalEdgeStyle;rounded=0;orthogonalLoop=1;jettySize=auto;html=1;" edge="1" parent="WIyWlLk6GJQsqaUBKTNV-1" source="4y6V4wLV0EvAnL0dNy4f-24" target="4y6V4wLV0EvAnL0dNy4f-32">
          <mxGeometry relative="1" as="geometry" />
        </mxCell>
        <mxCell id="4y6V4wLV0EvAnL0dNy4f-24" value="&lt;div style=&quot;text-align: start;&quot;&gt;BMI &amp;lt; 16.0?&lt;/div&gt;" style="rhombus;whiteSpace=wrap;html=1;" vertex="1" parent="WIyWlLk6GJQsqaUBKTNV-1">
          <mxGeometry x="390" y="435" width="80" height="80" as="geometry" />
        </mxCell>
        <mxCell id="4y6V4wLV0EvAnL0dNy4f-26" value="No" style="text;html=1;align=center;verticalAlign=middle;resizable=0;points=[];autosize=1;strokeColor=none;fillColor=none;" vertex="1" parent="WIyWlLk6GJQsqaUBKTNV-1">
          <mxGeometry x="320" y="448" width="40" height="30" as="geometry" />
        </mxCell>
        <mxCell id="4y6V4wLV0EvAnL0dNy4f-31" value="" style="edgeStyle=orthogonalEdgeStyle;rounded=0;orthogonalLoop=1;jettySize=auto;html=1;" edge="1" parent="WIyWlLk6GJQsqaUBKTNV-1" source="4y6V4wLV0EvAnL0dNy4f-27" target="4y6V4wLV0EvAnL0dNy4f-30">
          <mxGeometry relative="1" as="geometry" />
        </mxCell>
        <mxCell id="4y6V4wLV0EvAnL0dNy4f-27" value="&lt;div style=&quot;text-align: start;&quot;&gt;Severely underweight&lt;/div&gt;" style="whiteSpace=wrap;html=1;" vertex="1" parent="WIyWlLk6GJQsqaUBKTNV-1">
          <mxGeometry x="530" y="445" width="120" height="60" as="geometry" />
        </mxCell>
        <mxCell id="4y6V4wLV0EvAnL0dNy4f-29" value="Yes" style="text;html=1;align=center;verticalAlign=middle;resizable=0;points=[];autosize=1;strokeColor=none;fillColor=none;" vertex="1" parent="WIyWlLk6GJQsqaUBKTNV-1">
          <mxGeometry x="470" y="448" width="40" height="30" as="geometry" />
        </mxCell>
        <mxCell id="4y6V4wLV0EvAnL0dNy4f-30" value="End" style="ellipse;whiteSpace=wrap;html=1;" vertex="1" parent="WIyWlLk6GJQsqaUBKTNV-1">
          <mxGeometry x="690" y="435" width="80" height="80" as="geometry" />
        </mxCell>
        <mxCell id="4y6V4wLV0EvAnL0dNy4f-35" value="" style="edgeStyle=orthogonalEdgeStyle;rounded=0;orthogonalLoop=1;jettySize=auto;html=1;" edge="1" parent="WIyWlLk6GJQsqaUBKTNV-1" source="4y6V4wLV0EvAnL0dNy4f-32" target="4y6V4wLV0EvAnL0dNy4f-34">
          <mxGeometry relative="1" as="geometry" />
        </mxCell>
        <mxCell id="4y6V4wLV0EvAnL0dNy4f-41" value="" style="edgeStyle=orthogonalEdgeStyle;rounded=0;orthogonalLoop=1;jettySize=auto;html=1;" edge="1" parent="WIyWlLk6GJQsqaUBKTNV-1" source="4y6V4wLV0EvAnL0dNy4f-32" target="4y6V4wLV0EvAnL0dNy4f-40">
          <mxGeometry relative="1" as="geometry" />
        </mxCell>
        <mxCell id="4y6V4wLV0EvAnL0dNy4f-32" value="&lt;div style=&quot;text-align: start;&quot;&gt;BMI &amp;lt; 18.5?&lt;/div&gt;" style="rhombus;whiteSpace=wrap;html=1;" vertex="1" parent="WIyWlLk6GJQsqaUBKTNV-1">
          <mxGeometry x="390" y="595" width="80" height="80" as="geometry" />
        </mxCell>
        <mxCell id="4y6V4wLV0EvAnL0dNy4f-37" value="" style="edgeStyle=orthogonalEdgeStyle;rounded=0;orthogonalLoop=1;jettySize=auto;html=1;" edge="1" parent="WIyWlLk6GJQsqaUBKTNV-1" source="4y6V4wLV0EvAnL0dNy4f-34" target="4y6V4wLV0EvAnL0dNy4f-36">
          <mxGeometry relative="1" as="geometry" />
        </mxCell>
        <mxCell id="4y6V4wLV0EvAnL0dNy4f-34" value="&lt;div style=&quot;text-align: start;&quot;&gt;Underweight&lt;/div&gt;" style="whiteSpace=wrap;html=1;" vertex="1" parent="WIyWlLk6GJQsqaUBKTNV-1">
          <mxGeometry x="530" y="605" width="120" height="60" as="geometry" />
        </mxCell>
        <mxCell id="4y6V4wLV0EvAnL0dNy4f-36" value="End" style="ellipse;whiteSpace=wrap;html=1;" vertex="1" parent="WIyWlLk6GJQsqaUBKTNV-1">
          <mxGeometry x="690" y="595" width="80" height="80" as="geometry" />
        </mxCell>
        <mxCell id="4y6V4wLV0EvAnL0dNy4f-43" value="" style="edgeStyle=orthogonalEdgeStyle;rounded=0;orthogonalLoop=1;jettySize=auto;html=1;" edge="1" parent="WIyWlLk6GJQsqaUBKTNV-1" source="4y6V4wLV0EvAnL0dNy4f-40" target="4y6V4wLV0EvAnL0dNy4f-42">
          <mxGeometry relative="1" as="geometry" />
        </mxCell>
        <mxCell id="4y6V4wLV0EvAnL0dNy4f-47" value="" style="edgeStyle=orthogonalEdgeStyle;rounded=0;orthogonalLoop=1;jettySize=auto;html=1;" edge="1" parent="WIyWlLk6GJQsqaUBKTNV-1" source="4y6V4wLV0EvAnL0dNy4f-40" target="4y6V4wLV0EvAnL0dNy4f-46">
          <mxGeometry relative="1" as="geometry" />
        </mxCell>
        <mxCell id="4y6V4wLV0EvAnL0dNy4f-40" value="&lt;div style=&quot;text-align: start;&quot;&gt;BMI &amp;lt; 25.0?&lt;/div&gt;" style="rhombus;whiteSpace=wrap;html=1;" vertex="1" parent="WIyWlLk6GJQsqaUBKTNV-1">
          <mxGeometry x="390" y="755" width="80" height="80" as="geometry" />
        </mxCell>
        <mxCell id="4y6V4wLV0EvAnL0dNy4f-45" value="" style="edgeStyle=orthogonalEdgeStyle;rounded=0;orthogonalLoop=1;jettySize=auto;html=1;" edge="1" parent="WIyWlLk6GJQsqaUBKTNV-1" source="4y6V4wLV0EvAnL0dNy4f-42" target="4y6V4wLV0EvAnL0dNy4f-44">
          <mxGeometry relative="1" as="geometry" />
        </mxCell>
        <mxCell id="4y6V4wLV0EvAnL0dNy4f-42" value="Normal" style="whiteSpace=wrap;html=1;" vertex="1" parent="WIyWlLk6GJQsqaUBKTNV-1">
          <mxGeometry x="530" y="765" width="120" height="60" as="geometry" />
        </mxCell>
        <mxCell id="4y6V4wLV0EvAnL0dNy4f-44" value="End" style="ellipse;whiteSpace=wrap;html=1;" vertex="1" parent="WIyWlLk6GJQsqaUBKTNV-1">
          <mxGeometry x="690" y="755" width="80" height="80" as="geometry" />
        </mxCell>
        <mxCell id="4y6V4wLV0EvAnL0dNy4f-49" value="" style="edgeStyle=orthogonalEdgeStyle;rounded=0;orthogonalLoop=1;jettySize=auto;html=1;" edge="1" parent="WIyWlLk6GJQsqaUBKTNV-1" source="4y6V4wLV0EvAnL0dNy4f-46" target="4y6V4wLV0EvAnL0dNy4f-48">
          <mxGeometry relative="1" as="geometry" />
        </mxCell>
        <mxCell id="4y6V4wLV0EvAnL0dNy4f-53" value="" style="edgeStyle=orthogonalEdgeStyle;rounded=0;orthogonalLoop=1;jettySize=auto;html=1;" edge="1" parent="WIyWlLk6GJQsqaUBKTNV-1" source="4y6V4wLV0EvAnL0dNy4f-46" target="4y6V4wLV0EvAnL0dNy4f-52">
          <mxGeometry relative="1" as="geometry" />
        </mxCell>
        <mxCell id="4y6V4wLV0EvAnL0dNy4f-46" value="&lt;div style=&quot;caret-color: rgb(0, 0, 0); color: rgb(0, 0, 0); font-style: normal; font-variant-caps: normal; font-weight: 400; letter-spacing: normal; orphans: auto; text-align: start; text-indent: 0px; text-transform: none; white-space: normal; widows: auto; word-spacing: 0px; -webkit-text-size-adjust: auto; -webkit-text-stroke-width: 0px; text-decoration: none;&quot;&gt;BMI &amp;lt; 30.0?&lt;/div&gt;" style="rhombus;whiteSpace=wrap;html=1;" vertex="1" parent="WIyWlLk6GJQsqaUBKTNV-1">
          <mxGeometry x="390" y="915" width="80" height="80" as="geometry" />
        </mxCell>
        <mxCell id="4y6V4wLV0EvAnL0dNy4f-51" value="" style="edgeStyle=orthogonalEdgeStyle;rounded=0;orthogonalLoop=1;jettySize=auto;html=1;" edge="1" parent="WIyWlLk6GJQsqaUBKTNV-1" source="4y6V4wLV0EvAnL0dNy4f-48" target="4y6V4wLV0EvAnL0dNy4f-50">
          <mxGeometry relative="1" as="geometry" />
        </mxCell>
        <mxCell id="4y6V4wLV0EvAnL0dNy4f-48" value="Overweight" style="whiteSpace=wrap;html=1;" vertex="1" parent="WIyWlLk6GJQsqaUBKTNV-1">
          <mxGeometry x="530" y="925" width="120" height="60" as="geometry" />
        </mxCell>
        <mxCell id="4y6V4wLV0EvAnL0dNy4f-50" value="End" style="ellipse;whiteSpace=wrap;html=1;" vertex="1" parent="WIyWlLk6GJQsqaUBKTNV-1">
          <mxGeometry x="690" y="915" width="80" height="80" as="geometry" />
        </mxCell>
        <mxCell id="4y6V4wLV0EvAnL0dNy4f-55" value="" style="edgeStyle=orthogonalEdgeStyle;rounded=0;orthogonalLoop=1;jettySize=auto;html=1;" edge="1" parent="WIyWlLk6GJQsqaUBKTNV-1" source="4y6V4wLV0EvAnL0dNy4f-52" target="4y6V4wLV0EvAnL0dNy4f-54">
          <mxGeometry relative="1" as="geometry" />
        </mxCell>
        <mxCell id="4y6V4wLV0EvAnL0dNy4f-63" value="" style="edgeStyle=orthogonalEdgeStyle;rounded=0;orthogonalLoop=1;jettySize=auto;html=1;" edge="1" parent="WIyWlLk6GJQsqaUBKTNV-1" source="4y6V4wLV0EvAnL0dNy4f-52" target="4y6V4wLV0EvAnL0dNy4f-62">
          <mxGeometry relative="1" as="geometry" />
        </mxCell>
        <mxCell id="4y6V4wLV0EvAnL0dNy4f-52" value="&lt;div style=&quot;caret-color: rgb(0, 0, 0); color: rgb(0, 0, 0); font-style: normal; font-variant-caps: normal; font-weight: 400; letter-spacing: normal; orphans: auto; text-align: start; text-indent: 0px; text-transform: none; white-space: normal; widows: auto; word-spacing: 0px; -webkit-text-size-adjust: auto; -webkit-text-stroke-width: 0px; text-decoration: none;&quot;&gt;BMI &amp;lt; 40.0?&lt;/div&gt;" style="rhombus;whiteSpace=wrap;html=1;" vertex="1" parent="WIyWlLk6GJQsqaUBKTNV-1">
          <mxGeometry x="390" y="1075" width="80" height="80" as="geometry" />
        </mxCell>
        <mxCell id="4y6V4wLV0EvAnL0dNy4f-57" value="" style="edgeStyle=orthogonalEdgeStyle;rounded=0;orthogonalLoop=1;jettySize=auto;html=1;" edge="1" parent="WIyWlLk6GJQsqaUBKTNV-1" source="4y6V4wLV0EvAnL0dNy4f-54" target="4y6V4wLV0EvAnL0dNy4f-56">
          <mxGeometry relative="1" as="geometry" />
        </mxCell>
        <mxCell id="4y6V4wLV0EvAnL0dNy4f-54" value="&lt;div style=&quot;caret-color: rgb(0, 0, 0); color: rgb(0, 0, 0); font-style: normal; font-variant-caps: normal; font-weight: 400; letter-spacing: normal; orphans: auto; text-align: start; text-indent: 0px; text-transform: none; white-space: normal; widows: auto; word-spacing: 0px; -webkit-text-size-adjust: auto; -webkit-text-stroke-width: 0px; text-decoration: none;&quot;&gt;Obese&lt;/div&gt;" style="whiteSpace=wrap;html=1;" vertex="1" parent="WIyWlLk6GJQsqaUBKTNV-1">
          <mxGeometry x="530" y="1085" width="120" height="60" as="geometry" />
        </mxCell>
        <mxCell id="4y6V4wLV0EvAnL0dNy4f-56" value="End" style="ellipse;whiteSpace=wrap;html=1;" vertex="1" parent="WIyWlLk6GJQsqaUBKTNV-1">
          <mxGeometry x="690" y="1075" width="80" height="80" as="geometry" />
        </mxCell>
        <mxCell id="4y6V4wLV0EvAnL0dNy4f-58" value="Yes" style="text;html=1;align=center;verticalAlign=middle;resizable=0;points=[];autosize=1;strokeColor=none;fillColor=none;" vertex="1" parent="WIyWlLk6GJQsqaUBKTNV-1">
          <mxGeometry x="470" y="605" width="40" height="30" as="geometry" />
        </mxCell>
        <mxCell id="4y6V4wLV0EvAnL0dNy4f-59" value="Yes" style="text;html=1;align=center;verticalAlign=middle;resizable=0;points=[];autosize=1;strokeColor=none;fillColor=none;" vertex="1" parent="WIyWlLk6GJQsqaUBKTNV-1">
          <mxGeometry x="470" y="770" width="40" height="30" as="geometry" />
        </mxCell>
        <mxCell id="4y6V4wLV0EvAnL0dNy4f-60" value="Yes" style="text;html=1;align=center;verticalAlign=middle;resizable=0;points=[];autosize=1;strokeColor=none;fillColor=none;" vertex="1" parent="WIyWlLk6GJQsqaUBKTNV-1">
          <mxGeometry x="470" y="925" width="40" height="30" as="geometry" />
        </mxCell>
        <mxCell id="4y6V4wLV0EvAnL0dNy4f-61" value="Yes" style="text;html=1;align=center;verticalAlign=middle;resizable=0;points=[];autosize=1;strokeColor=none;fillColor=none;" vertex="1" parent="WIyWlLk6GJQsqaUBKTNV-1">
          <mxGeometry x="470" y="1085" width="40" height="30" as="geometry" />
        </mxCell>
        <mxCell id="4y6V4wLV0EvAnL0dNy4f-66" value="" style="edgeStyle=orthogonalEdgeStyle;rounded=0;orthogonalLoop=1;jettySize=auto;html=1;" edge="1" parent="WIyWlLk6GJQsqaUBKTNV-1" source="4y6V4wLV0EvAnL0dNy4f-62" target="4y6V4wLV0EvAnL0dNy4f-65">
          <mxGeometry relative="1" as="geometry" />
        </mxCell>
        <mxCell id="4y6V4wLV0EvAnL0dNy4f-62" value="Extremely Obese" style="whiteSpace=wrap;html=1;" vertex="1" parent="WIyWlLk6GJQsqaUBKTNV-1">
          <mxGeometry x="370" y="1245" width="120" height="60" as="geometry" />
        </mxCell>
        <mxCell id="4y6V4wLV0EvAnL0dNy4f-64" value="No" style="text;html=1;align=center;verticalAlign=middle;resizable=0;points=[];autosize=1;strokeColor=none;fillColor=none;" vertex="1" parent="WIyWlLk6GJQsqaUBKTNV-1">
          <mxGeometry x="440" y="1178" width="40" height="30" as="geometry" />
        </mxCell>
        <mxCell id="4y6V4wLV0EvAnL0dNy4f-65" value="End" style="ellipse;whiteSpace=wrap;html=1;" vertex="1" parent="WIyWlLk6GJQsqaUBKTNV-1">
          <mxGeometry x="390" y="1375" width="80" height="80" as="geometry" />
        </mxCell>
        <mxCell id="4y6V4wLV0EvAnL0dNy4f-70" value="" style="edgeStyle=orthogonalEdgeStyle;rounded=0;orthogonalLoop=1;jettySize=auto;html=1;" edge="1" parent="WIyWlLk6GJQsqaUBKTNV-1" source="4y6V4wLV0EvAnL0dNy4f-67" target="4y6V4wLV0EvAnL0dNy4f-69">
          <mxGeometry relative="1" as="geometry" />
        </mxCell>
        <mxCell id="4y6V4wLV0EvAnL0dNy4f-76" value="" style="edgeStyle=orthogonalEdgeStyle;rounded=0;orthogonalLoop=1;jettySize=auto;html=1;" edge="1" parent="WIyWlLk6GJQsqaUBKTNV-1" source="4y6V4wLV0EvAnL0dNy4f-67" target="4y6V4wLV0EvAnL0dNy4f-75">
          <mxGeometry relative="1" as="geometry" />
        </mxCell>
        <mxCell id="4y6V4wLV0EvAnL0dNy4f-67" value="&lt;div style=&quot;text-align: start;&quot;&gt;BMI &amp;lt; 18.5?&lt;/div&gt;" style="rhombus;whiteSpace=wrap;html=1;" vertex="1" parent="WIyWlLk6GJQsqaUBKTNV-1">
          <mxGeometry x="70" y="435" width="80" height="80" as="geometry" />
        </mxCell>
        <mxCell id="4y6V4wLV0EvAnL0dNy4f-72" value="" style="edgeStyle=orthogonalEdgeStyle;rounded=0;orthogonalLoop=1;jettySize=auto;html=1;" edge="1" parent="WIyWlLk6GJQsqaUBKTNV-1" source="4y6V4wLV0EvAnL0dNy4f-69" target="4y6V4wLV0EvAnL0dNy4f-71">
          <mxGeometry relative="1" as="geometry" />
        </mxCell>
        <mxCell id="4y6V4wLV0EvAnL0dNy4f-78" value="" style="edgeStyle=orthogonalEdgeStyle;rounded=0;orthogonalLoop=1;jettySize=auto;html=1;" edge="1" parent="WIyWlLk6GJQsqaUBKTNV-1" source="4y6V4wLV0EvAnL0dNy4f-69" target="4y6V4wLV0EvAnL0dNy4f-77">
          <mxGeometry relative="1" as="geometry" />
        </mxCell>
        <mxCell id="4y6V4wLV0EvAnL0dNy4f-69" value="&lt;div style=&quot;text-align: start;&quot;&gt;BMI &amp;lt;= 22.9?&lt;/div&gt;" style="rhombus;whiteSpace=wrap;html=1;" vertex="1" parent="WIyWlLk6GJQsqaUBKTNV-1">
          <mxGeometry x="70" y="595" width="80" height="80" as="geometry" />
        </mxCell>
        <mxCell id="4y6V4wLV0EvAnL0dNy4f-80" value="" style="edgeStyle=orthogonalEdgeStyle;rounded=0;orthogonalLoop=1;jettySize=auto;html=1;" edge="1" parent="WIyWlLk6GJQsqaUBKTNV-1" source="4y6V4wLV0EvAnL0dNy4f-71">
          <mxGeometry relative="1" as="geometry">
            <mxPoint x="10" y="794.9999999999998" as="targetPoint" />
          </mxGeometry>
        </mxCell>
        <mxCell id="4y6V4wLV0EvAnL0dNy4f-97" value="" style="edgeStyle=orthogonalEdgeStyle;rounded=0;orthogonalLoop=1;jettySize=auto;html=1;" edge="1" parent="WIyWlLk6GJQsqaUBKTNV-1" source="4y6V4wLV0EvAnL0dNy4f-71" target="4y6V4wLV0EvAnL0dNy4f-96">
          <mxGeometry relative="1" as="geometry" />
        </mxCell>
        <mxCell id="4y6V4wLV0EvAnL0dNy4f-71" value="&lt;div style=&quot;text-align: start;&quot;&gt;BMI &amp;lt;= 24.9?&lt;/div&gt;" style="rhombus;whiteSpace=wrap;html=1;" vertex="1" parent="WIyWlLk6GJQsqaUBKTNV-1">
          <mxGeometry x="70" y="755" width="80" height="80" as="geometry" />
        </mxCell>
        <mxCell id="4y6V4wLV0EvAnL0dNy4f-102" value="" style="edgeStyle=orthogonalEdgeStyle;rounded=0;orthogonalLoop=1;jettySize=auto;html=1;" edge="1" parent="WIyWlLk6GJQsqaUBKTNV-1" source="4y6V4wLV0EvAnL0dNy4f-75" target="4y6V4wLV0EvAnL0dNy4f-101">
          <mxGeometry relative="1" as="geometry" />
        </mxCell>
        <mxCell id="4y6V4wLV0EvAnL0dNy4f-75" value="&lt;div style=&quot;text-align: start;&quot;&gt;Underweight&lt;/div&gt;" style="whiteSpace=wrap;html=1;" vertex="1" parent="WIyWlLk6GJQsqaUBKTNV-1">
          <mxGeometry x="-110" y="445" width="120" height="60" as="geometry" />
        </mxCell>
        <mxCell id="4y6V4wLV0EvAnL0dNy4f-104" value="" style="edgeStyle=orthogonalEdgeStyle;rounded=0;orthogonalLoop=1;jettySize=auto;html=1;" edge="1" parent="WIyWlLk6GJQsqaUBKTNV-1" source="4y6V4wLV0EvAnL0dNy4f-77" target="4y6V4wLV0EvAnL0dNy4f-103">
          <mxGeometry relative="1" as="geometry" />
        </mxCell>
        <mxCell id="4y6V4wLV0EvAnL0dNy4f-77" value="&lt;div style=&quot;text-align: start;&quot;&gt;Normal&lt;/div&gt;" style="whiteSpace=wrap;html=1;" vertex="1" parent="WIyWlLk6GJQsqaUBKTNV-1">
          <mxGeometry x="-110" y="605" width="120" height="60" as="geometry" />
        </mxCell>
        <mxCell id="4y6V4wLV0EvAnL0dNy4f-84" value="Yes" style="text;html=1;align=center;verticalAlign=middle;resizable=0;points=[];autosize=1;strokeColor=none;fillColor=none;" vertex="1" parent="WIyWlLk6GJQsqaUBKTNV-1">
          <mxGeometry x="170" y="445" width="40" height="30" as="geometry" />
        </mxCell>
        <mxCell id="4y6V4wLV0EvAnL0dNy4f-85" value="Yes" style="text;html=1;align=center;verticalAlign=middle;resizable=0;points=[];autosize=1;strokeColor=none;fillColor=none;" vertex="1" parent="WIyWlLk6GJQsqaUBKTNV-1">
          <mxGeometry x="20" y="448" width="40" height="30" as="geometry" />
        </mxCell>
        <mxCell id="4y6V4wLV0EvAnL0dNy4f-86" value="Yes" style="text;html=1;align=center;verticalAlign=middle;resizable=0;points=[];autosize=1;strokeColor=none;fillColor=none;" vertex="1" parent="WIyWlLk6GJQsqaUBKTNV-1">
          <mxGeometry x="30" y="605" width="40" height="30" as="geometry" />
        </mxCell>
        <mxCell id="4y6V4wLV0EvAnL0dNy4f-87" value="Yes" style="text;html=1;align=center;verticalAlign=middle;resizable=0;points=[];autosize=1;strokeColor=none;fillColor=none;" vertex="1" parent="WIyWlLk6GJQsqaUBKTNV-1">
          <mxGeometry x="20" y="765" width="40" height="30" as="geometry" />
        </mxCell>
        <mxCell id="4y6V4wLV0EvAnL0dNy4f-89" value="No" style="text;html=1;align=center;verticalAlign=middle;resizable=0;points=[];autosize=1;strokeColor=none;fillColor=none;" vertex="1" parent="WIyWlLk6GJQsqaUBKTNV-1">
          <mxGeometry x="430" y="528" width="40" height="30" as="geometry" />
        </mxCell>
        <mxCell id="4y6V4wLV0EvAnL0dNy4f-90" value="No" style="text;html=1;align=center;verticalAlign=middle;resizable=0;points=[];autosize=1;strokeColor=none;fillColor=none;" vertex="1" parent="WIyWlLk6GJQsqaUBKTNV-1">
          <mxGeometry x="430" y="700" width="40" height="30" as="geometry" />
        </mxCell>
        <mxCell id="4y6V4wLV0EvAnL0dNy4f-91" value="No" style="text;html=1;align=center;verticalAlign=middle;resizable=0;points=[];autosize=1;strokeColor=none;fillColor=none;" vertex="1" parent="WIyWlLk6GJQsqaUBKTNV-1">
          <mxGeometry x="430" y="860" width="40" height="30" as="geometry" />
        </mxCell>
        <mxCell id="4y6V4wLV0EvAnL0dNy4f-92" value="No" style="text;html=1;align=center;verticalAlign=middle;resizable=0;points=[];autosize=1;strokeColor=none;fillColor=none;" vertex="1" parent="WIyWlLk6GJQsqaUBKTNV-1">
          <mxGeometry x="430" y="1030" width="40" height="30" as="geometry" />
        </mxCell>
        <mxCell id="4y6V4wLV0EvAnL0dNy4f-93" value="No" style="text;html=1;align=center;verticalAlign=middle;resizable=0;points=[];autosize=1;strokeColor=none;fillColor=none;" vertex="1" parent="WIyWlLk6GJQsqaUBKTNV-1">
          <mxGeometry x="110" y="540" width="40" height="30" as="geometry" />
        </mxCell>
        <mxCell id="4y6V4wLV0EvAnL0dNy4f-94" value="No" style="text;html=1;align=center;verticalAlign=middle;resizable=0;points=[];autosize=1;strokeColor=none;fillColor=none;" vertex="1" parent="WIyWlLk6GJQsqaUBKTNV-1">
          <mxGeometry x="110" y="710" width="40" height="30" as="geometry" />
        </mxCell>
        <mxCell id="4y6V4wLV0EvAnL0dNy4f-106" value="" style="edgeStyle=orthogonalEdgeStyle;rounded=0;orthogonalLoop=1;jettySize=auto;html=1;" edge="1" parent="WIyWlLk6GJQsqaUBKTNV-1" source="4y6V4wLV0EvAnL0dNy4f-95" target="4y6V4wLV0EvAnL0dNy4f-105">
          <mxGeometry relative="1" as="geometry" />
        </mxCell>
        <mxCell id="4y6V4wLV0EvAnL0dNy4f-95" value="&lt;div style=&quot;text-align: start;&quot;&gt;&lt;div&gt;Overweight&lt;/div&gt;&lt;/div&gt;" style="whiteSpace=wrap;html=1;" vertex="1" parent="WIyWlLk6GJQsqaUBKTNV-1">
          <mxGeometry x="-110" y="765" width="120" height="60" as="geometry" />
        </mxCell>
        <mxCell id="4y6V4wLV0EvAnL0dNy4f-108" value="" style="edgeStyle=orthogonalEdgeStyle;rounded=0;orthogonalLoop=1;jettySize=auto;html=1;" edge="1" parent="WIyWlLk6GJQsqaUBKTNV-1" source="4y6V4wLV0EvAnL0dNy4f-96" target="4y6V4wLV0EvAnL0dNy4f-107">
          <mxGeometry relative="1" as="geometry" />
        </mxCell>
        <mxCell id="4y6V4wLV0EvAnL0dNy4f-96" value="&lt;div style=&quot;text-align: start;&quot;&gt;Obese&lt;/div&gt;" style="whiteSpace=wrap;html=1;" vertex="1" parent="WIyWlLk6GJQsqaUBKTNV-1">
          <mxGeometry x="50" y="925" width="120" height="60" as="geometry" />
        </mxCell>
        <mxCell id="4y6V4wLV0EvAnL0dNy4f-98" value="No" style="text;html=1;align=center;verticalAlign=middle;resizable=0;points=[];autosize=1;strokeColor=none;fillColor=none;" vertex="1" parent="WIyWlLk6GJQsqaUBKTNV-1">
          <mxGeometry x="110" y="860" width="40" height="30" as="geometry" />
        </mxCell>
        <mxCell id="4y6V4wLV0EvAnL0dNy4f-101" value="End" style="ellipse;whiteSpace=wrap;html=1;" vertex="1" parent="WIyWlLk6GJQsqaUBKTNV-1">
          <mxGeometry x="-230" y="435" width="80" height="80" as="geometry" />
        </mxCell>
        <mxCell id="4y6V4wLV0EvAnL0dNy4f-103" value="End" style="ellipse;whiteSpace=wrap;html=1;" vertex="1" parent="WIyWlLk6GJQsqaUBKTNV-1">
          <mxGeometry x="-230" y="595" width="80" height="80" as="geometry" />
        </mxCell>
        <mxCell id="4y6V4wLV0EvAnL0dNy4f-105" value="End" style="ellipse;whiteSpace=wrap;html=1;" vertex="1" parent="WIyWlLk6GJQsqaUBKTNV-1">
          <mxGeometry x="-230" y="755" width="80" height="80" as="geometry" />
        </mxCell>
        <mxCell id="4y6V4wLV0EvAnL0dNy4f-107" value="End" style="ellipse;whiteSpace=wrap;html=1;" vertex="1" parent="WIyWlLk6GJQsqaUBKTNV-1">
          <mxGeometry x="70" y="1055" width="80" height="80" as="geometry" />
        </mxCell>
      </root>
    </mxGraphModel>
  </diagram>
</mxfile>
